<?xml version="1.0" encoding="utf-8"?>
<!-- Generator: Adobe Illustrator 27.9.0, SVG Export Plug-In . SVG Version: 6.00 Build 0)  -->
<svg version="1.1" xmlns="http://www.w3.org/2000/svg" xmlns:xlink="http://www.w3.org/1999/xlink" x="0px" y="0px"
	 viewBox="0 0 139.64 25.68" style="enable-background:new 0 0 139.64 25.68;" xml:space="preserve">
<style type="text/css">
	.st0{fill:#2A4953;}
	.st1{fill:#78B6E7;}
</style>
<g id="BACKGROUND">
	<g>
		<g>
			<path class="st0" d="M29.77,6.39h-5.44v14.99h-3.01V6.39h-5.39V3.95h13.83V6.39z"/>
			<path class="st0" d="M38.85,20.12c-0.85,1.01-2.07,1.51-3.64,1.51c-1.41,0-2.47-0.41-3.19-1.23c-0.72-0.82-1.08-2.01-1.08-3.57
				v-8.4h2.91v8.36c0,1.65,0.68,2.47,2.05,2.47c1.41,0,2.37-0.51,2.86-1.52V8.43h2.91v12.96h-2.74L38.85,20.12z"/>
			<path class="st0" d="M47.33,8.43l0.08,1.5c0.96-1.16,2.21-1.74,3.77-1.74c2.7,0,4.07,1.54,4.12,4.63v8.56h-2.91v-8.4
				c0-0.82-0.18-1.43-0.53-1.83c-0.35-0.4-0.94-0.59-1.74-0.59c-1.17,0-2.05,0.53-2.62,1.59v9.22h-2.91V8.43H47.33z"/>
			<path class="st0" d="M71.15,6.39h-5.44v14.99H62.7V6.39h-5.39V3.95h13.83V6.39z"/>
			<path class="st0" d="M80.22,20.12c-0.85,1.01-2.07,1.51-3.64,1.51c-1.41,0-2.47-0.41-3.19-1.23c-0.72-0.82-1.08-2.01-1.08-3.57
				v-8.4h2.91v8.36c0,1.65,0.68,2.47,2.05,2.47c1.41,0,2.37-0.51,2.86-1.52V8.43h2.91v12.96H80.3L80.22,20.12z"/>
			<path class="st0" d="M88.7,8.43l0.08,1.5c0.96-1.16,2.21-1.74,3.77-1.74c2.7,0,4.07,1.54,4.12,4.63v8.56h-2.91v-8.4
				c0-0.82-0.18-1.43-0.53-1.83c-0.35-0.4-0.94-0.59-1.74-0.59c-1.17,0-2.05,0.53-2.62,1.59v9.22h-2.91V8.43H88.7z"/>
			<path class="st1" d="M113.23,15.71c-0.18,1.86-0.86,3.31-2.06,4.35c-1.2,1.04-2.79,1.56-4.78,1.56c-1.39,0-2.61-0.33-3.67-0.99
				s-1.87-1.59-2.45-2.81c-0.58-1.21-0.88-2.62-0.9-4.23v-1.63c0-1.64,0.29-3.09,0.87-4.35s1.42-2.22,2.51-2.9s2.35-1.02,3.78-1.02
				c1.92,0,3.47,0.52,4.65,1.56c1.17,1.04,1.86,2.52,2.05,4.42h-3.02c-0.14-1.25-0.51-2.16-1.1-2.71s-1.45-0.83-2.58-0.83
				c-1.32,0-2.33,0.48-3.04,1.44c-0.71,0.96-1.07,2.38-1.08,4.24v1.55c0,1.89,0.34,3.32,1.01,4.31c0.67,0.99,1.66,1.49,2.96,1.49
				c1.19,0,2.08-0.27,2.68-0.8c0.6-0.53,0.98-1.43,1.14-2.67H113.23z"/>
			<path class="st1" d="M123.4,21.39c-0.13-0.25-0.24-0.65-0.34-1.21c-0.93,0.97-2.06,1.45-3.4,1.45c-1.3,0-2.36-0.37-3.19-1.11
				c-0.82-0.74-1.23-1.66-1.23-2.75c0-1.38,0.51-2.44,1.54-3.18c1.03-0.74,2.49-1.11,4.4-1.11h1.78v-0.85
				c0-0.67-0.19-1.21-0.56-1.61c-0.38-0.4-0.95-0.6-1.71-0.6c-0.66,0-1.21,0.17-1.63,0.5c-0.42,0.33-0.63,0.75-0.63,1.26h-2.91
				c0-0.71,0.24-1.38,0.71-1.99s1.11-1.1,1.92-1.46c0.81-0.35,1.71-0.53,2.71-0.53c1.52,0,2.73,0.38,3.63,1.14
				c0.9,0.76,1.37,1.83,1.39,3.22v5.84c0,1.17,0.16,2.1,0.49,2.79v0.2H123.4z M120.2,19.29c0.58,0,1.12-0.14,1.62-0.42
				c0.51-0.28,0.89-0.65,1.14-1.13V15.3h-1.57c-1.08,0-1.89,0.19-2.43,0.56c-0.54,0.38-0.81,0.91-0.81,1.59c0,0.56,0.19,1,0.56,1.33
				C119.08,19.12,119.57,19.29,120.2,19.29z"/>
			<path class="st1" d="M135.71,11.09c-0.38-0.06-0.78-0.1-1.19-0.1c-1.33,0-2.23,0.51-2.7,1.53v8.86h-2.91V8.43h2.78l0.07,1.45
				c0.7-1.13,1.68-1.69,2.92-1.69c0.42,0,0.76,0.06,1.03,0.17L135.71,11.09z"/>
		</g>
	</g>
	<polygon class="st0" points="7.88,3.47 9.41,6.58 12.84,7.07 10.36,9.49 10.95,12.91 7.88,11.3 4.81,12.91 5.4,9.49 2.92,7.07 
		6.34,6.58 	"/>
	<polygon class="st1" points="14.68,10.58 16.21,13.69 19.64,14.19 17.16,16.61 17.74,20.02 14.68,18.41 11.61,20.02 12.19,16.61 
		9.71,14.19 13.14,13.69 	"/>
</g>
<g id="OBJECTS">
	<g>
	</g>
	<g>
	</g>
	<g>
	</g>
	<g>
	</g>
	<g>
	</g>
	<g>
	</g>
</g>
</svg>
